<svg width="24" height="24" viewBox="0 0 24 24" fill="none" xmlns="http://www.w3.org/2000/svg">
<mask id="mask0_13_261" style="mask-type:alpha" maskUnits="userSpaceOnUse" x="0" y="0" width="24" height="24">
<rect width="24" height="24" fill="#D9D9D9"/>
</mask>
<g mask="url(#mask0_13_261)">
<path d="M18.925 22.375H5.07505C4.44172 22.375 3.90438 22.15 3.46305 21.7C3.02105 21.25 2.80005 20.7167 2.80005 20.1V8.25C2.80005 7.61667 3.02105 7.079 3.46305 6.637C3.90438 6.19567 4.44172 5.975 5.07505 5.975H6.90005C6.90005 4.55833 7.39572 3.354 8.38705 2.362C9.37905 1.37067 10.5834 0.875 12 0.875C13.4167 0.875 14.621 1.37067 15.613 2.362C16.6044 3.354 17.1 4.55833 17.1 5.975H18.925C19.5584 5.975 20.096 6.19567 20.538 6.637C20.9794 7.079 21.2001 7.61667 21.2001 8.25V20.1C21.2001 20.7167 20.9794 21.25 20.538 21.7C20.096 22.15 19.5584 22.375 18.925 22.375ZM9.17505 5.975H14.825C14.825 5.175 14.55 4.504 14 3.962C13.45 3.42067 12.7834 3.15 12 3.15C11.2167 3.15 10.55 3.42067 10 3.962C9.45005 4.504 9.17505 5.175 9.17505 5.975ZM18.925 20.1V8.25H5.07505V20.1H18.925ZM12 14.325C13.25 14.325 14.3834 13.9207 15.4 13.112C16.4167 12.304 16.9167 11.3917 16.9 10.375C16.9 10.0583 16.796 9.79167 16.588 9.575C16.3794 9.35833 16.1167 9.25 15.8 9.25C15.55 9.25 15.3294 9.32067 15.138 9.462C14.946 9.604 14.7917 9.83333 14.675 10.15C14.475 10.7167 14.125 11.175 13.625 11.525C13.125 11.875 12.5834 12.05 12 12.05C11.4167 12.05 10.871 11.879 10.363 11.537C9.85438 11.1957 9.50838 10.7333 9.32505 10.15C9.20838 9.83333 9.05838 9.604 8.87505 9.462C8.69172 9.32067 8.47505 9.25 8.22505 9.25C7.90838 9.25 7.64605 9.35833 7.43805 9.575C7.22938 9.79167 7.12505 10.0583 7.12505 10.375C7.12505 11.3917 7.62505 12.304 8.62505 13.112C9.62505 13.9207 10.75 14.325 12 14.325Z" fill="white"/>
</g>
</svg>
