<svg width="24" height="25" viewBox="0 0 24 25" fill="none" xmlns="http://www.w3.org/2000/svg">
<mask id="mask0_12_187" style="mask-type:alpha" maskUnits="userSpaceOnUse" x="0" y="0" width="24" height="25">
<rect y="0.5" width="24" height="24" fill="#D9D9D9"/>
</mask>
<g mask="url(#mask0_12_187)">
<path d="M8.05002 14.025L9.92502 11.4H14.05L8.05002 6.67498V14.025ZM15.35 22.3C14.9334 22.5 14.521 22.525 14.113 22.375C13.7044 22.225 13.4 21.9416 13.2 21.525L10.15 14.975L7.85002 18.225C7.51669 18.6916 7.08736 18.8376 6.56202 18.663C6.03736 18.4876 5.77502 18.125 5.77502 17.575V4.34998C5.77502 3.88331 5.98769 3.54564 6.41302 3.33698C6.83769 3.12898 7.24169 3.17498 7.62502 3.47498L18.025 11.65C18.4584 11.9833 18.5834 12.404 18.4 12.912C18.2167 13.4206 17.8584 13.675 17.325 13.675H13.1L16.125 20.15C16.325 20.5666 16.346 20.9833 16.188 21.4C16.0294 21.8166 15.75 22.1166 15.35 22.3Z" fill="#C92C2D"/>
</g>
</svg>
