<svg width="24" height="25" viewBox="0 0 24 25" fill="none" xmlns="http://www.w3.org/2000/svg">
<mask id="mask0_13_283" style="mask-type:alpha" maskUnits="userSpaceOnUse" x="0" y="0" width="24" height="25">
<rect y="0.5" width="24" height="24" fill="#D9D9D9"/>
</mask>
<g mask="url(#mask0_13_283)">
<path d="M9.09995 9.60001C8.81662 9.60001 8.57895 9.50401 8.38695 9.31201C8.19562 9.12068 8.09995 8.88335 8.09995 8.60001C8.09995 8.31668 8.19562 8.07901 8.38695 7.88701C8.57895 7.69568 8.81662 7.60001 9.09995 7.60001H14.9C15.1833 7.60001 15.421 7.69568 15.613 7.88701C15.8043 8.07901 15.9 8.31668 15.9 8.60001C15.9 8.88335 15.8043 9.12068 15.613 9.31201C15.421 9.50401 15.1833 9.60001 14.9 9.60001H9.09995ZM7.09995 23.675C6.46662 23.675 5.92928 23.4543 5.48795 23.013C5.04595 22.571 4.82495 22.0333 4.82495 21.4V3.60001C4.82495 2.96668 5.04595 2.42901 5.48795 1.98701C5.92928 1.54568 6.46662 1.32501 7.09995 1.32501H16.9C17.5333 1.32501 18.071 1.54568 18.513 1.98701C18.9543 2.42901 19.175 2.96668 19.175 3.60001V21.4C19.175 22.0333 18.9543 22.571 18.513 23.013C18.071 23.4543 17.5333 23.675 16.9 23.675H7.09995ZM7.09995 18.4H16.9V6.60001H7.09995V18.4ZM7.09995 20.4V21.4H16.9V20.4H7.09995ZM7.09995 4.60001H16.9V3.60001H7.09995V4.60001Z" fill="white"/>
</g>
</svg>
