<svg width="24" height="24" viewBox="0 0 24 24" fill="none" xmlns="http://www.w3.org/2000/svg">
<mask id="mask0_13_258" style="mask-type:alpha" maskUnits="userSpaceOnUse" x="0" y="0" width="24" height="24">
<rect width="24" height="24" fill="#D9D9D9"/>
</mask>
<g mask="url(#mask0_13_258)">
<path d="M12 11.9C10.8334 11.9 9.84171 11.4873 9.02505 10.662C8.20838 9.83733 7.80005 8.85 7.80005 7.7C7.80005 6.53333 8.20838 5.54167 9.02505 4.725C9.84171 3.90833 10.8334 3.5 12 3.5C13.1667 3.5 14.1584 3.90833 14.975 4.725C15.7917 5.54167 16.2 6.53333 16.2 7.7C16.2 8.85 15.7917 9.83733 14.975 10.662C14.1584 11.4873 13.1667 11.9 12 11.9ZM17.925 20.3H6.07505C5.44172 20.3 4.90438 20.0793 4.46305 19.638C4.02105 19.196 3.80005 18.6583 3.80005 18.025V17.3C3.80005 16.6833 3.95438 16.125 4.26305 15.625C4.57105 15.125 4.98338 14.7417 5.50005 14.475C6.55005 13.9417 7.61672 13.5457 8.70005 13.287C9.78338 13.029 10.8834 12.9 12 12.9C13.1167 12.9 14.2167 13.029 15.3 13.287C16.3834 13.5457 17.45 13.9333 18.5 14.45C19.0167 14.7167 19.4294 15.1043 19.738 15.613C20.046 16.121 20.2001 16.6833 20.2001 17.3V18.025C20.2001 18.6583 19.9794 19.196 19.538 19.638C19.096 20.0793 18.5584 20.3 17.925 20.3ZM6.07505 18.025H17.925V17.325C17.925 17.1417 17.8794 16.975 17.788 16.825C17.696 16.675 17.575 16.5667 17.425 16.5C16.5584 16.05 15.6707 15.7167 14.762 15.5C13.854 15.2833 12.9334 15.175 12 15.175C11.0667 15.175 10.146 15.2833 9.23805 15.5C8.32938 15.7167 7.44172 16.05 6.57505 16.5C6.42505 16.5667 6.30438 16.675 6.21305 16.825C6.12105 16.975 6.07505 17.1417 6.07505 17.325V18.025ZM12 9.625C12.5334 9.625 12.9877 9.43733 13.363 9.062C13.7377 8.68733 13.925 8.23333 13.925 7.7C13.925 7.16667 13.7377 6.71233 13.363 6.337C12.9877 5.96233 12.5334 5.775 12 5.775C11.4667 5.775 11.0127 5.96233 10.638 6.337C10.2627 6.71233 10.075 7.16667 10.075 7.7C10.075 8.23333 10.2627 8.68733 10.638 9.062C11.0127 9.43733 11.4667 9.625 12 9.625Z" fill="white"/>
</g>
</svg>
