<svg width="24" height="24" viewBox="0 0 24 24" fill="none" xmlns="http://www.w3.org/2000/svg">
<mask id="mask0_13_238" style="mask-type:alpha" maskUnits="userSpaceOnUse" x="0" y="0" width="24" height="24">
<rect width="24" height="24" fill="#D9D9D9"/>
</mask>
<g mask="url(#mask0_13_238)">
<path d="M12 16C13.25 16 14.3127 15.5626 15.188 14.688C16.0627 13.8126 16.5 12.75 16.5 11.5C16.5 10.25 16.0627 9.18728 15.188 8.31195C14.3127 7.43728 13.25 6.99995 12 6.99995C10.75 6.99995 9.68733 7.43728 8.812 8.31195C7.93733 9.18728 7.5 10.25 7.5 11.5C7.5 12.75 7.93733 13.8126 8.812 14.688C9.68733 15.5626 10.75 16 12 16ZM12 14.075C11.2833 14.075 10.675 13.825 10.175 13.325C9.675 12.825 9.425 12.2166 9.425 11.5C9.425 10.7833 9.675 10.175 10.175 9.67495C10.675 9.17495 11.2833 8.92495 12 8.92495C12.7167 8.92495 13.325 9.17495 13.825 9.67495C14.325 10.175 14.575 10.7833 14.575 11.5C14.575 12.2166 14.325 12.825 13.825 13.325C13.325 13.825 12.7167 14.075 12 14.075ZM12 19.175C9.65 19.175 7.504 18.554 5.562 17.312C3.62067 16.0706 2.15 14.3916 1.15 12.275C1.1 12.1916 1.06267 12.0793 1.038 11.938C1.01267 11.796 1 11.65 1 11.5C1 11.35 1.01267 11.204 1.038 11.062C1.06267 10.9206 1.1 10.8083 1.15 10.725C2.15 8.60829 3.62067 6.92928 5.562 5.68795C7.504 4.44595 9.65 3.82495 12 3.82495C14.35 3.82495 16.496 4.44595 18.438 5.68795C20.3793 6.92928 21.85 8.60829 22.85 10.725C22.9 10.8083 22.9373 10.9206 22.962 11.062C22.9873 11.204 23 11.35 23 11.5C23 11.65 22.9873 11.796 22.962 11.938C22.9373 12.0793 22.9 12.1916 22.85 12.275C21.85 14.3916 20.3793 16.0706 18.438 17.312C16.496 18.554 14.35 19.175 12 19.175ZM12 17C13.8833 17 15.6083 16.504 17.175 15.512C18.7417 14.5206 19.9417 13.1833 20.775 11.5C19.9417 9.81662 18.7417 8.47895 17.175 7.48695C15.6083 6.49562 13.8833 5.99995 12 5.99995C10.1167 5.99995 8.39167 6.49562 6.825 7.48695C5.25833 8.47895 4.05833 9.81662 3.225 11.5C4.05833 13.1833 5.25833 14.5206 6.825 15.512C8.39167 16.504 10.1167 17 12 17Z" fill="white"/>
</g>
</svg>
