<svg width="24" height="24" viewBox="0 0 24 24" fill="none" xmlns="http://www.w3.org/2000/svg">
<mask id="mask0_13_244" style="mask-type:alpha" maskUnits="userSpaceOnUse" x="0" y="0" width="24" height="24">
<rect width="24" height="24" fill="#D9D9D9"/>
</mask>
<g mask="url(#mask0_13_244)">
<path d="M16.125 13.2L14.425 11.5C14.5417 10.85 14.3543 10.246 13.863 9.68802C13.371 9.12936 12.7333 8.90836 11.95 9.02502L10.3 7.37502C10.5667 7.24169 10.8417 7.14602 11.125 7.08802C11.4083 7.02936 11.7 7.00002 12 7.00002C13.25 7.00002 14.3127 7.43736 15.188 8.31202C16.0627 9.18736 16.5 10.25 16.5 11.5C16.5 11.8 16.471 12.0917 16.413 12.375C16.3543 12.6584 16.2583 12.9334 16.125 13.2ZM19.5 16.525L17.925 14.975C18.525 14.5084 19.0627 13.996 19.538 13.438C20.0127 12.8794 20.4333 12.2334 20.8 11.5C19.95 9.81669 18.75 8.47902 17.2 7.48702C15.65 6.49569 13.9167 6.00002 12 6.00002C11.5167 6.00002 11.0543 6.03336 10.613 6.10002C10.171 6.16669 9.73333 6.25836 9.3 6.37502L7.6 4.67502C8.28333 4.39169 8.99167 4.17902 9.725 4.03702C10.4583 3.89569 11.2167 3.82502 12 3.82502C14.4 3.82502 16.5627 4.45402 18.488 5.71202C20.4127 6.97069 21.8667 8.64169 22.85 10.725C22.9 10.8084 22.9373 10.9207 22.962 11.062C22.9873 11.204 23 11.35 23 11.5C23 11.65 22.9833 11.796 22.95 11.938C22.9167 12.0794 22.8833 12.1917 22.85 12.275C22.4667 13.125 21.9877 13.9084 21.413 14.625C20.8377 15.3417 20.2 15.975 19.5 16.525ZM19 21.95L15.625 18.625C15.0583 18.8084 14.475 18.946 13.875 19.038C13.275 19.1294 12.65 19.175 12 19.175C9.6 19.175 7.43767 18.5417 5.513 17.275C3.58767 16.0084 2.13333 14.3417 1.15 12.275C1.1 12.1917 1.06267 12.0794 1.038 11.938C1.01267 11.796 1 11.65 1 11.5C1 11.35 1.01267 11.2084 1.038 11.075C1.06267 10.9417 1.1 10.825 1.15 10.725C1.5 9.99169 1.91267 9.31269 2.388 8.68802C2.86267 8.06269 3.38333 7.48336 3.95 6.95002L1.95 4.90002C1.75 4.71669 1.65 4.48336 1.65 4.20002C1.65 3.91669 1.75833 3.66669 1.975 3.45002C2.15833 3.25002 2.4 3.15002 2.7 3.15002C3 3.15002 3.24167 3.25002 3.425 3.45002L20.45 20.475C20.65 20.675 20.7543 20.9167 20.763 21.2C20.771 21.4834 20.6667 21.7334 20.45 21.95C20.2667 22.1334 20.025 22.225 19.725 22.225C19.425 22.225 19.1833 22.1334 19 21.95ZM5.5 8.47502C5.01667 8.90836 4.58767 9.37102 4.213 9.86302C3.83767 10.3544 3.50833 10.9 3.225 11.5C4.05833 13.1834 5.25 14.5207 6.8 15.512C8.35 16.504 10.0833 17 12 17C12.3 17 12.6 16.9834 12.9 16.95C13.2 16.9167 13.5167 16.875 13.85 16.825L12.95 15.875C12.7833 15.9084 12.625 15.9374 12.475 15.962C12.325 15.9874 12.1667 16 12 16C10.75 16 9.68733 15.5627 8.812 14.688C7.93733 13.8127 7.5 12.75 7.5 11.5C7.5 11.3334 7.50833 11.175 7.525 11.025C7.54167 10.875 7.575 10.7167 7.625 10.55L5.5 8.47502Z" fill="white"/>
</g>
</svg>
