<svg width="32" height="32" viewBox="0 0 32 32" fill="none" xmlns="http://www.w3.org/2000/svg">
<path d="M2.36792 29.3908L4.27441 22.4433C3.0966 20.4052 2.47794 18.0932 2.48079 15.7404C2.48389 8.34777 8.51147 2.33356 15.9185 2.33356C19.5128 2.33538 22.8866 3.73148 25.4239 6.26575C27.9612 8.80002 29.3572 12.1686 29.356 15.7512C29.3527 23.1433 23.3242 29.1586 15.9183 29.1586H15.9124C13.6637 29.1577 11.454 28.5946 9.49129 27.5264L2.36792 29.3908Z" fill="white"/>
<path d="M15.9226 4.59842C9.76185 4.59842 4.75171 9.59714 4.74952 15.7413C4.74649 17.8394 5.33844 19.8955 6.45695 21.6719L6.72268 22.0935L5.59419 26.2054L9.82139 25.0991L10.2296 25.3405C11.9439 26.356 13.9096 26.893 15.9142 26.8941H15.9184C22.0743 26.8941 27.0845 21.8948 27.0868 15.7503C27.0915 14.2857 26.805 12.8348 26.244 11.4815C25.6831 10.1283 24.8587 8.8995 23.8187 7.86637C22.7844 6.8276 21.554 6.0039 20.1986 5.44295C18.8432 4.882 17.3898 4.59495 15.9226 4.59842V4.59842Z" fill="url(#paint0_linear_13_273)"/>
<path fill-rule="evenodd" clip-rule="evenodd" d="M12.56 10.1354C12.3083 9.57745 12.0435 9.56614 11.8044 9.55648L11.1608 9.54865C10.9369 9.54865 10.5731 9.63249 10.2656 9.96789C9.95802 10.3033 9.09033 11.1139 9.09033 12.7626C9.09033 14.4114 10.2935 16.0045 10.4612 16.2284C10.6288 16.4522 12.7839 19.9435 16.1967 21.2867C19.0328 22.403 19.6099 22.181 20.2258 22.1252C20.8416 22.0694 22.2122 21.3146 22.4918 20.5321C22.7715 19.7495 22.7716 19.0791 22.6878 18.9389C22.604 18.7987 22.3801 18.7154 22.044 18.5477C21.708 18.38 20.0575 17.5694 19.7498 17.4575C19.4421 17.3456 19.2184 17.29 18.9943 17.6254C18.7702 17.9608 18.1275 18.7153 17.9315 18.9389C17.7356 19.1626 17.54 19.1906 17.2039 19.0231C16.8679 18.8556 15.7867 18.5016 14.5039 17.36C13.5058 16.4717 12.8321 15.3747 12.6359 15.0395C12.4398 14.7043 12.6151 14.5228 12.7835 14.3558C12.9342 14.2056 13.1192 13.9644 13.2874 13.7688C13.4556 13.5733 13.5109 13.4334 13.6227 13.2101C13.7345 12.9869 13.6788 12.7907 13.5948 12.6232C13.5108 12.4557 12.8584 10.7984 12.56 10.1356" fill="white"/>
<defs>
<linearGradient id="paint0_linear_13_273" x1="15.6908" y1="5.93637" x2="15.8036" y2="24.9894" gradientUnits="userSpaceOnUse">
<stop stop-color="#57D163"/>
<stop offset="1" stop-color="#23B33A"/>
</linearGradient>
</defs>
</svg>
